<?xml version="1.0" encoding="utf-8"?>
<!-- Generator: Adobe Illustrator 22.0.1, SVG Export Plug-In . SVG Version: 6.00 Build 0)  -->
<svg version="1.1" id="Слой_1" xmlns="http://www.w3.org/2000/svg" xmlns:xlink="http://www.w3.org/1999/xlink" x="0px" y="0px"
	 viewBox="0 0 500 500" style="enable-background:new 0 0 500 500;" xml:space="preserve">
<style type="text/css">
	.st0{opacity:0.4;clip-path:url(#SVGID_2_);}
	.st1{clip-path:url(#SVGID_4_);fill:#D6D8E5;}
	.st2{clip-path:url(#SVGID_2_);fill:#FFCEA9;}
	.st3{clip-path:url(#SVGID_2_);fill:#EDEDED;}
	.st4{clip-path:url(#SVGID_2_);fill:#2B2A30;}
	.st5{clip-path:url(#SVGID_2_);fill:#BF4B4B;}
	.st6{clip-path:url(#SVGID_2_);fill:#E26161;}
	.st7{clip-path:url(#SVGID_2_);fill:#F4F4F4;}
	.st8{clip-path:url(#SVGID_2_);fill:#B1B4C4;}
	.st9{clip-path:url(#SVGID_2_);fill:#616E84;}
	.st10{clip-path:url(#SVGID_2_);fill:#757B89;}
	.st11{clip-path:url(#SVGID_2_);fill:#20232D;}
	.st12{clip-path:url(#SVGID_2_);fill:#2B303F;}
	.st13{opacity:0.5;clip-path:url(#SVGID_2_);}
	.st14{clip-path:url(#SVGID_6_);}
	.st15{filter:url(#Adobe_OpacityMaskFilter);}
	.st16{clip-path:url(#SVGID_8_);fill:url(#SVGID_10_);}
	.st17{clip-path:url(#SVGID_8_);mask:url(#SVGID_9_);fill:url(#SVGID_11_);}
	.st18{opacity:0.1;clip-path:url(#SVGID_2_);}
	.st19{clip-path:url(#SVGID_13_);fill:#FFFFFF;}
	.st20{clip-path:url(#SVGID_2_);fill:#999BA3;}
	.st21{clip-path:url(#SVGID_2_);fill:#333A47;}
	.st22{clip-path:url(#SVGID_2_);fill:#CFD1DC;}
	.st23{clip-path:url(#SVGID_2_);fill:#E9EAF4;}
	.st24{clip-path:url(#SVGID_2_);fill:#AAACB5;}
	.st25{clip-path:url(#SVGID_2_);fill:#B8B9C3;}
	.st26{clip-path:url(#SVGID_2_);fill:#C1C4D3;}
	.st27{clip-path:url(#SVGID_2_);fill:#FFFFFF;}
	.st28{clip-path:url(#SVGID_2_);fill:#CADCF9;}
	.st29{clip-path:url(#SVGID_2_);fill:#7040CC;}
	.st30{clip-path:url(#SVGID_2_);fill:#E26D6D;}
	.st31{clip-path:url(#SVGID_2_);fill:#8C50FF;}
	.st32{clip-path:url(#SVGID_2_);fill:#4A289E;}
</style>
<g>
	<defs>
		<rect id="SVGID_1_" width="500" height="500"/>
	</defs>
	<clipPath id="SVGID_2_">
		<use xlink:href="#SVGID_1_"  style="overflow:visible;"/>
	</clipPath>
	<g class="st0">
		<g>
			<defs>
				<rect id="SVGID_3_" y="416.6" width="63.5" height="36.6"/>
			</defs>
			<clipPath id="SVGID_4_">
				<use xlink:href="#SVGID_3_"  style="overflow:visible;"/>
			</clipPath>
			<path class="st1" d="M54.2,447.9c-12.4,7.2-32.5,7.2-44.9,0s-12.4-18.8,0-25.9c12.4-7.2,32.5-7.2,44.9,0
				C66.6,429.1,66.6,440.7,54.2,447.9"/>
		</g>
	</g>
	<path class="st2" d="M8.5,297.7c-0.4,3.1-4,16.4-3.2,20.9c0.8,4.6,13.4,12.2,13.4,12.2l1.7-7.8l-7-6.8l1.9-12.9L8.5,297.7z"/>
	<path class="st3" d="M18.2,284.6c-1.8-0.8-5.1-1-7,2.1c-1.9,3.1-3.8,13.6-3.9,15.4c0,0,2.6,3.6,6.5,3L18.2,284.6z"/>
	<path class="st4" d="M32.5,432.9c2.7,0.7,5.8,0.4,8.1-1c2,0.1,12.6-4.5,14-0.7c1.3,3.3-3.3,6.4-5.8,7c-5.4,1.3-9.3,4-11.5,4.4
		c-1.6,0.3-3.7,0.6-5-0.7C30.9,440.5,31,434.9,32.5,432.9"/>
	<path class="st5" d="M37.4,441.8c2.2-0.5,6.1-3.1,11.5-4.4c2.1-0.5,5.6-2.8,6-5.4c0.5,3.1-3.7,5.8-6,6.4c-5.4,1.3-9.3,4-11.5,4.4
		c-1.6,0.3-3.7,0.6-5-0.7c-0.3-0.3-0.5-0.7-0.7-1.3C33.6,442.3,35.8,442.1,37.4,441.8"/>
	<path class="st4" d="M15.3,425.2c2.7,0.7,5.8,0.4,8.1-1c2,0.1,12.6-4.5,14-0.7c1.3,3.3-3.3,6.4-5.8,7c-5.4,1.3-9.3,4-11.5,4.4
		c-1.6,0.3-3.7,0.6-5-0.7C13.7,432.8,13.8,427.2,15.3,425.2"/>
	<path class="st5" d="M20.2,434.1c2.2-0.5,6.1-3.1,11.5-4.4c2.1-0.5,5.6-2.8,6-5.4c0.5,3.1-3.7,5.8-6,6.4c-5.4,1.3-9.3,4-11.5,4.4
		c-1.6,0.3-3.7,0.6-5-0.7c-0.3-0.3-0.5-0.7-0.7-1.3C16.3,434.6,18.5,434.4,20.2,434.1"/>
	<path class="st6" d="M15.1,396.3c1-7.3,2.5-11.6,2.5-11.6s-0.7-10-1.1-19.6c-0.4-10.8-4.2-20.3-1.2-29l33.4,7.4
		c0,0-2,43.1-2.5,48.3c-0.2,2.8-0.3,5.7-1.5,12.1c-1.5,8.4-4,28.3-4,28.3c-3.5,2-8.2,0.9-8.2,0.9s0.3-25.2,0.5-31.2
		c0.3-7.4,0.5-6.8,0.5-6.8l-1.1-18.3l-0.7-9.1c0,0-0.9,6.7-1.5,12.7c-0.5,5.2-1.8,9.9-3.2,19.6c-1.2,8.4-3.2,25.3-3.2,25.3
		c-3.5,2.1-8.3,0.3-8.3,0.3S14.1,403.6,15.1,396.3"/>
	<path class="st2" d="M19.9,284.8c2.5,0.1,4.4,0.8,4.8,0c0.2-0.6,0.6-4,0.6-4c-0.3-0.7-0.5-1.5-0.5-1.5c-3.2-2-4.2-5.4-4.6-9.4
		c-0.7-6.9,3-12.9,9.9-13.6c6.5-0.7,11.2,3.9,12.5,10.1c0.7,3.1,2,8.9,0.2,13.9c-1,2.8-2.3,5.1-3.7,5.5c-0.5,0.1-2.9-0.2-3.8-0.3
		l0,0c0,0-0.3,1.9-0.6,3.1c-0.2,1.2-0.1,1.9,2.3,3.4c2.4,1.5-3.7,4.6-7.7,4.3c-4-0.3-8.5-2.7-9.7-5.3
		C18.1,288.1,18.2,284.7,19.9,284.8"/>
	<path class="st7" d="M23.6,285.2c-0.7,1.8,1.1,3.9,5.9,5.4c4.8,1.5,5.2-0.4,5.2-0.4s7,3.2,9.3,4.8c2.9,2,4.1,7.8,4.5,17.6
		c0.4,11.3,0.5,28.1,0.1,31c0,0-5.4,5.3-12.2,4.8c-6.9-0.6-18.4-6.6-21.2-11.3c0.1-9.9,1.2-11.5-0.4-17.3
		c-3.7-13.1-5.6-18.4-3.8-27.1c1.5-7.2,3.5-8.1,6.4-8C20.2,284.6,23.6,285.2,23.6,285.2"/>
	<path class="st2" d="M59.3,321.8c-5.6,1.4-6.9-2.1-7.7-5.1c-1.8-7.1-2.8-13.5-4.1-17.6c-1.6-4.8-3.2-5.5-5.5-6.4
		c-2.7-1.1-5,1.2-4.1,7.3c1.1,7.2,2.5,12.2,5.2,20.7c0.7,2.2,2.3,6.1,4.6,8c2.9,2.3,7.3,2.2,13.9,0.6c2.8-0.7,5.9-2.4,11.2-4.9
		c1.4-0.7,2.5-1.1,5.3-2.4c2.7-1.3,5.6-3.4,7-5.5c1.4-2.1,1.2-3.4,0.9-3.9c-0.4-0.6-0.6-0.1-1.3,0.8c-0.8,0.9-1.9,2.5-4,3.7
		c0,0,1.8-1.8,2.7-3c1-1.2,1.7-2.5,2.1-3.5c0.5-1.2-0.5-2.9-1.3-2c-0.8,0.9-1.2,1.8-2.6,3.5c-1.3,1.6-2.6,2.5-2.6,2.5s1.5-2,2.4-3.9
		c0.9-1.9-2.2-0.9-3.9,0.9c-1.3,1.3-2.4,2.1-2.4,1.7c0-0.4-2.5,2.3-3.8,3.7C69.7,318.6,64.6,320.5,59.3,321.8"/>
	<path class="st3" d="M39.9,291.8c3.8-0.6,6.4,1.1,8.1,6.8c1.7,5.7,2.8,10.4,2.8,10.4s-1.8,3.1-6.3,4.2c-4.5,1.1-6.1-1.1-6.1-1.1
		s-1.2-6-2-10C35.6,298,35.2,292.5,39.9,291.8"/>
	<path class="st4" d="M42.2,265.5c0,0,5.9-9-6.9-10.9c-9.3-1.3-15.2,4.6-15.9,11.1c-0.7,6.2,3.1,12.6,5.9,15.1c1.3,0.5,4.2,0.8,8-1
		c0.2-1.5,0.2-5.1,0.2-5.1S28.9,265.3,42.2,265.5"/>
	<path class="st2" d="M72.3,314.8c0,0-1.5-2.7-0.5-3.3c0.9-0.7,2.3,1.8,2.5,2.8c0.3,1-0.1-0.3-0.1-0.3s-1-3-0.4-3.6
		c0.7-0.6,1.5,0.7,2.4,2.6c0.9,1.9,0.2-0.2,0.2-0.2s-1.4-3-0.8-3.4c0.8-0.6,2.2,1.2,3,2.8c0.8,1.6-1.1,3.5-1.1,3.5L72.3,314.8z"/>
	<path class="st8" d="M75.1,319.5l-5.4-3.1c-0.5-0.3-0.4-0.7,0.1-1l13.2-7.6c0.5-0.3,1.3-0.3,1.8-0.1l5.4,3.1c0.5,0.3,0.4,0.7-0.1,1
		l-13.2,7.6C76.4,319.7,75.6,319.8,75.1,319.5"/>
	<polygon class="st8" points="69.4,315.9 69.4,315.4 70,315.6 	"/>
	<polygon class="st8" points="90.5,311.2 90.5,310.7 90.1,311 	"/>
	<path class="st9" d="M75.1,319.1l-5.4-3.1c-0.5-0.3-0.4-0.7,0.1-1l13.2-7.6c0.5-0.3,1.3-0.3,1.8-0.1l5.4,3.1c0.5,0.3,0.4,0.7-0.1,1
		L76.9,319C76.4,319.3,75.6,319.3,75.1,319.1"/>
	<path class="st10" d="M70.4,316.5C70.4,316.6,70.3,316.6,70.4,316.5c-0.1,0-0.1,0-0.1-0.1c0,0,0-0.1,0.1,0
		C70.3,316.4,70.4,316.5,70.4,316.5"/>
	<path class="st10" d="M70.6,316.7C70.6,316.7,70.6,316.7,70.6,316.7c-0.1,0-0.1,0-0.1-0.1c0,0,0-0.1,0.1,0
		C70.6,316.6,70.6,316.6,70.6,316.7"/>
	<path class="st10" d="M70.9,316.8C70.9,316.9,70.9,316.9,70.9,316.8c-0.1,0-0.1,0-0.1-0.1c0,0,0-0.1,0.1,0
		C70.9,316.7,70.9,316.8,70.9,316.8"/>
	<path class="st10" d="M71.2,317C71.2,317,71.1,317,71.2,317c-0.1,0-0.1,0-0.1-0.1c0,0,0-0.1,0.1,0C71.1,316.9,71.2,316.9,71.2,317"
		/>
	<path class="st10" d="M73.4,318.3C73.4,318.3,73.4,318.3,73.4,318.3c-0.1,0-0.1,0-0.1-0.1c0,0,0-0.1,0.1,0
		C73.4,318.2,73.4,318.2,73.4,318.3"/>
	<path class="st10" d="M73.7,318.4C73.7,318.5,73.6,318.5,73.7,318.4c-0.1,0-0.1,0-0.1-0.1c0,0,0-0.1,0.1,0
		C73.6,318.3,73.7,318.4,73.7,318.4"/>
	<path class="st10" d="M73.9,318.6C73.9,318.6,73.9,318.7,73.9,318.6c-0.1,0-0.1,0-0.1-0.1s0-0.1,0.1,0
		C73.9,318.5,73.9,318.5,73.9,318.6"/>
	<path class="st10" d="M74.2,318.7C74.2,318.8,74.2,318.8,74.2,318.7c-0.1,0-0.1,0-0.1-0.1s0-0.1,0.1,0
		C74.2,318.6,74.2,318.7,74.2,318.7"/>
	<path class="st10" d="M72.6,317.9l-0.7-0.4c0,0-0.1-0.1-0.1-0.2c0-0.1,0-0.1,0.1-0.1l0.7,0.4C72.6,317.7,72.7,317.8,72.6,317.9
		C72.7,317.9,72.6,317.9,72.6,317.9"/>
	<path class="st10" d="M88.9,312.4l-0.7,0.4c0,0-0.1,0-0.1-0.1s0-0.1,0.1-0.1l0.7-0.4c0,0,0.1,0,0.1,0.1
		C89,312.3,88.9,312.4,88.9,312.4"/>
	<path class="st10" d="M87.9,313l-0.7,0.4c0,0-0.1,0-0.1-0.1c0-0.1,0-0.1,0.1-0.1l0.7-0.4c0,0,0.1,0,0.1,0.1
		C88,312.9,87.9,313,87.9,313"/>
	<path class="st11" d="M75.1,319l-5.4-3.1c-0.5-0.3-0.4-0.7,0.1-1l13.2-7.6c0.5-0.3,1.3-0.3,1.8-0.1l5.4,3.1c0.5,0.3,0.4,0.7-0.1,1
		l-13.2,7.6C76.4,319.2,75.6,319.3,75.1,319"/>
	<path class="st12" d="M89.7,310.4l-2.1-1.2c0,0,0,0,0,0c-0.3,0.1-0.7,0.1-0.9,0c-0.3-0.1-0.3-0.4,0-0.5l0,0l-2.1-1.2
		c-0.3-0.2-0.8-0.2-1.2,0l-12.8,7.4c-0.3,0.2-0.3,0.5,0,0.7l5.2,3c0.3,0.2,0.8,0.2,1.2,0l12.8-7.4C90,310.9,90,310.6,89.7,310.4"/>
	<g class="st13">
		<g>
			<defs>
				<rect id="SVGID_5_" x="70.3" y="307.3" width="19.6" height="11.3"/>
			</defs>
			<clipPath id="SVGID_6_">
				<use xlink:href="#SVGID_5_"  style="overflow:visible;"/>
			</clipPath>
			<g class="st14">
				<defs>
					<path id="SVGID_7_" d="M89.7,310.4l-2.1-1.2c0,0,0,0,0,0c-0.3,0.1-0.7,0.1-0.9,0c-0.3-0.1-0.3-0.4,0-0.5l0,0l-2.1-1.2
						c-0.3-0.2-0.8-0.2-1.2,0l-12.8,7.4c-0.3,0.2-0.3,0.5,0,0.7l5.2,3c0.3,0.2,0.8,0.2,1.2,0l12.8-7.4C90,310.9,90,310.6,89.7,310.4
						"/>
				</defs>
				<clipPath id="SVGID_8_">
					<use xlink:href="#SVGID_7_"  style="overflow:visible;"/>
				</clipPath>
				<defs>
					<filter id="Adobe_OpacityMaskFilter" filterUnits="userSpaceOnUse" x="60.3" y="301.5" width="39.6" height="22.9">
						<feColorMatrix  type="matrix" values="1 0 0 0 0  0 1 0 0 0  0 0 1 0 0  0 0 0 1 0"/>
					</filter>
				</defs>
				<mask maskUnits="userSpaceOnUse" x="60.3" y="301.5" width="39.6" height="22.9" id="SVGID_9_">
					<g class="st15">
						
							<linearGradient id="SVGID_10_" gradientUnits="userSpaceOnUse" x1="0" y1="500" x2="1" y2="500" gradientTransform="matrix(13.9889 -8.0765 -12.1148 -6.9945 6130.4731 3814.2354)">
							<stop  offset="0" style="stop-color:#000000"/>
							<stop  offset="0.2051" style="stop-color:#000000"/>
							<stop  offset="1" style="stop-color:#333333"/>
							<stop  offset="1" style="stop-color:#333333"/>
						</linearGradient>
						<polygon class="st16" points="60.3,313 80.1,301.5 99.9,313 80.1,324.4 						"/>
					</g>
				</mask>
				
					<linearGradient id="SVGID_11_" gradientUnits="userSpaceOnUse" x1="0" y1="500" x2="1" y2="500" gradientTransform="matrix(13.9889 -8.0765 -12.1148 -6.9945 6130.4736 3814.2354)">
					<stop  offset="0" style="stop-color:#FFFFFF"/>
					<stop  offset="0.2051" style="stop-color:#FFFFFF"/>
					<stop  offset="1" style="stop-color:#FFFFFF"/>
					<stop  offset="1" style="stop-color:#FFFFFF"/>
				</linearGradient>
				<polygon class="st17" points="60.3,313 80.1,301.5 99.9,313 80.1,324.4 				"/>
			</g>
		</g>
	</g>
	<path class="st12" d="M87.1,309.1c-0.1,0.1-0.3,0.1-0.3,0c-0.1-0.1-0.1-0.1,0-0.2c0.1-0.1,0.3-0.1,0.3,0
		C87.2,309,87.2,309.1,87.1,309.1"/>
	<g class="st18">
		<g>
			<defs>
				<rect id="SVGID_12_" x="86.8" y="308.9" width="0.2" height="0.1"/>
			</defs>
			<clipPath id="SVGID_13_">
				<use xlink:href="#SVGID_12_"  style="overflow:visible;"/>
			</clipPath>
			<path class="st19" d="M86.9,309C86.8,309,86.8,309,86.9,309c0-0.1,0.1-0.1,0.1-0.1c0,0,0,0.1,0,0.1C87,309.1,86.9,309.1,86.9,309
				"/>
		</g>
	</g>
	<path class="st2" d="M83.6,318.2c0,0,2.9-2.6,2.7-6c-0.2-2.4-1.6-0.7-1.6-0.7l-1.5,2.6c0,0-1.5,1.9-2.8,2.3c0,0-1.3,0.1-3.1,0.5
		c-1.8,0.3-3.6,2.6-3.6,2.6l2.3,1.8L83.6,318.2z"/>
	<path class="st20" d="M224.5,196l-17.1,7.4c-0.4,0.2-0.7,0.5-1.1,0.7c-0.1,0.1-0.2,0.1-0.2,0.2c-0.3,0.3-0.7,0.5-1,0.8
		c0,0-0.1,0.1-0.1,0.1c-0.3,0.3-0.6,0.6-0.8,0.9c-0.1,0.1-0.1,0.2-0.2,0.2c-0.3,0.3-0.5,0.7-0.8,1.1c0,0,0,0,0,0.1
		c0,0,0,0.1-0.1,0.1c-0.3,0.5-0.6,0.9-0.8,1.5c0,0,0,0,0,0c0,0,0,0,0,0c-0.2,0.4-0.4,0.8-0.5,1.2c0,0,0,0.1-0.1,0.1
		c0,0.1-0.1,0.2-0.1,0.3c-0.1,0.2-0.2,0.5-0.2,0.8c0,0.1-0.1,0.2-0.1,0.2c0,0.1,0,0.2-0.1,0.3c-0.1,0.2-0.1,0.4-0.2,0.6
		c0,0.1-0.1,0.2-0.1,0.3c0,0.1,0,0.2-0.1,0.3c0,0.2-0.1,0.4-0.1,0.6c0,0.1,0,0.2-0.1,0.3c0,0.1,0,0.2,0,0.3c0,0.2-0.1,0.3-0.1,0.5
		c0,0.1,0,0.2,0,0.3c0,0.1,0,0.3,0,0.4c0,0.2,0,0.3,0,0.5c0,0.1,0,0.1,0,0.2c0,0.2,0,0.4,0,0.6c0,0.1,0,0.3,0,0.4c0,0,0,0.1,0,0.1
		c0,0.4,0,0.8,0,1.1v0.1l0,13.1l43.7-18.8L224.5,196z"/>
	<path class="st12" d="M225.8,198.7c0,0-16.7,9.7-16.5,9.7c0.1,0,9.3-1.1,9.5-1c0.2,0,0.4,0.1,0.6,0.2c0.1,0,0.3,0.1,0.4,0.1
		c0.2,0.1,0.5,0.1,0.7,0.2c0.1,0,0.2,0.1,0.3,0.1c0.7,0.2,1.4,0.5,2.1,0.8c0.1,0,0.2,0.1,0.3,0.2c0.2,0.1,0.5,0.2,0.7,0.4
		c0.1,0.1,0.2,0.1,0.4,0.2c0.3,0.2,0.7,0.4,1,0.5c0.4,0.2,0.7,0.4,1.1,0.7c0,0,0,0,0.1,0c0.4,0.2,0.7,0.5,1.1,0.7
		c0.1,0.1,0.2,0.2,0.4,0.3c0.2,0.2,0.5,0.3,0.7,0.5c0.1,0.1,0.3,0.2,0.4,0.3c0.2,0.2,0.4,0.3,0.6,0.5c0.2,0.1,0.3,0.2,0.5,0.4
		c0.2,0.2,0.4,0.3,0.6,0.5c0.2,0.1,0.3,0.3,0.5,0.4c0.2,0.2,0.4,0.3,0.6,0.5c0.2,0.1,0.3,0.3,0.5,0.4c0.2,0.2,0.4,0.4,0.6,0.6
		c0.1,0.1,0.3,0.3,0.4,0.4c0.2,0.2,0.4,0.4,0.6,0.6c0.1,0.1,0.3,0.3,0.4,0.4c0.2,0.2,0.5,0.5,0.7,0.7c0.1,0.1,0.2,0.2,0.3,0.3
		c0.3,0.4,0.6,0.7,0.9,1.1c0.1,0.1,0.1,0.1,0.1,0.2c0.3,0.3,0.5,0.6,0.8,0.9c0.3,0.4,0.6,0.8,0.9,1.2c0,0,0,0,0,0
		c0.4,0.6,0.9,1.2,1.3,1.8c0.1,0.1,0.2,0.2,0.2,0.3c0.5,0.8,1,1.6,1.5,2.4c0.1,0.1,0.1,0.2,0.2,0.3c0.3,0.6,0.7,1.2,1,1.7
		c0.1,0.2,0.2,0.4,0.3,0.6c0.1,0.2,0.2,0.4,0.3,0.7c0.2,0.3,0.3,0.7,0.5,1c0,0.1,0.1,0.2,0.1,0.3c0.2,0.4,0.4,0.8,0.6,1.3
		c0.1,0.1,0.1,0.2,0.1,0.3c0.1,0.3,0.3,0.6,0.4,0.9c0.1,0.1,0.1,0.3,0.2,0.4c0.1,0.3,0.2,0.6,0.4,0.9c0,0.1,0.1,0.3,0.1,0.4
		c0.1,0.4,0.3,0.8,0.4,1.2c0,0,0,0.1,0,0.1c0.1,0.4,0.3,0.9,0.4,1.3c0,0.1,0.1,0.3,0.1,0.4c0.1,0.3,0.2,0.6,0.3,0.9
		c0,0.2,0.1,0.3,0.1,0.5c0.1,0.3,0.1,0.6,0.2,0.8c0,0.2,0.1,0.3,0.1,0.5c0.1,0.3,0.1,0.6,0.2,0.9c0,0.2,0.1,0.3,0.1,0.5
		c0.1,0.4,0.1,0.8,0.2,1.1c0,0.1,0,0.1,0,0.2c0.1,0.4,0.1,0.9,0.2,1.3c0,0.1,0,0.2,0,0.4c0,0.3,0.1,0.6,0.1,0.9c0,0.1,0,0.3,0,0.4
		c0,0.3,0,0.6,0.1,0.9c0,0.1,0,0.3,0,0.4c0,0.4,0,0.8,0,1.2c0,0.4,0,0.8,0,1.2c0,0.1,0,0.2,0,0.3c0,0.3,0,0.6-0.1,0.8
		c0,0.2,0,0.3,0,0.5c0,0.2-0.1,0.5-0.1,0.7c0,0.2,0,0.3-0.1,0.5c0,0.2-0.1,0.4-0.1,0.6c0,0.2-0.1,0.4-0.1,0.5c0,0.2-0.1,0.4-0.1,0.5
		c-0.1,0.2-0.1,0.4-0.2,0.6c0,0.2-0.1,0.3-0.1,0.5c-0.1,0.2-0.2,0.5-0.2,0.7c0,0.1-0.1,0.3-0.1,0.4c-0.1,0.4-0.3,0.8-0.5,1.1
		c0,0,0,0.1-0.1,0.1c-0.2,0.5-0.5,1-0.8,1.4c0,0,0,0.1-0.1,0.1c-0.2,0.4-0.5,0.7-0.7,1c-0.1,0.1-0.1,0.2-0.2,0.2
		c-0.3,0.3-0.5,0.6-0.8,0.9c0,0,0,0-0.1,0.1c-0.3,0.3-0.6,0.5-0.9,0.8c-0.1,0.1-0.2,0.1-0.2,0.2c-0.3,0.2-0.7,0.5-1,0.7l12.4-7.2
		c0,0,6.7-22.6-1.5-39.7C248.3,208.7,225.8,198.7,225.8,198.7"/>
	<path class="st21" d="M225.3,210c12.5,7.2,22.6,24.7,22.5,39c0,14.3-10.2,20.1-22.7,12.9c-12.5-7.2-22.6-24.7-22.5-39
		C202.7,208.6,212.8,202.8,225.3,210"/>
	<path class="st21" d="M225.3,221.2c0.8,0.5,1.5,3.3,1.5,6.4c0,3-0.7,5.1-1.5,4.6c-0.8-0.5-1.5-3.3-1.5-6.3
		C223.7,222.8,224.4,220.7,225.3,221.2"/>
	<path class="st21" d="M222.4,236.9c0.2,0.1,0.4,0.3,0.5,0.5c0.6,1-0.5,2.7-2.3,3.8c-1.5,0.9-3.1,1.1-4,0.6
		c-0.2-0.1-0.4-0.3-0.5-0.5c-0.6-1,0.5-2.7,2.3-3.8C219.9,236.6,221.5,236.4,222.4,236.9"/>
	<path class="st21" d="M217.1,229.6c2.6,1.5,4.8,3.5,4.8,4.5c0,1-2.1,0.5-4.8-1c-2.6-1.5-4.8-3.5-4.8-4.5
		C212.4,227.6,214.5,228.1,217.1,229.6"/>
	<path class="st21" d="M225.2,239.8c0.8,0.5,1.5,3.3,1.5,6.3c0,3-0.7,5.1-1.5,4.6c-0.8-0.5-1.5-3.3-1.5-6.3
		C223.7,241.4,224.4,239.3,225.2,239.8"/>
	<path class="st21" d="M228,240.1c0.9,0.5,2.4,2.5,4,5.1c1.9,3.2,2.9,6.1,2.3,6.4c-0.1,0.1-0.3,0-0.5-0.1c-0.9-0.5-2.4-2.5-4-5.1
		c-1.9-3.2-2.9-6.1-2.3-6.4C227.7,240,227.8,240,228,240.1"/>
	<path class="st21" d="M233.3,238.9c2.6,1.5,4.8,3.5,4.8,4.5c0,1-2.1,0.5-4.8-1c-2.6-1.5-4.8-3.5-4.8-4.5
		C228.5,237,230.7,237.4,233.3,238.9"/>
	<path class="st21" d="M216.6,220.4c0.9,0.5,2.4,2.5,4,5.1c1.9,3.2,2.9,6.1,2.3,6.4c-0.1,0.1-0.3,0-0.5-0.1c-0.9-0.5-2.5-2.5-4-5.1
		c-1.9-3.2-2.9-6.1-2.3-6.4C216.3,220.2,216.4,220.3,216.6,220.4"/>
	<path class="st21" d="M233.9,230.3c0.2,0.1,0.4,0.3,0.5,0.5c0.6,1-0.5,2.7-2.3,3.8c-1.5,0.9-3.1,1.1-4,0.6
		c-0.2-0.1-0.4-0.3-0.5-0.5c-0.6-1,0.5-2.7,2.3-3.8C231.4,230,233,229.8,233.9,230.3"/>
	<path class="st22" d="M227.4,220.1c-0.7-0.5-1.4-1-2.1-1.4c-8.3-4.8-15-1-15.1,8.6v0.2c0.1,9.5,6.7,21,15,25.8
		c8.3,4.8,15.1,1,15.1-8.6C240.3,236,234.7,225.5,227.4,220.1 M212.4,228.6c0-1,2.1-0.5,4.8,1c2.6,1.5,4.8,3.5,4.8,4.5
		s-2.1,0.5-4.8-1C214.5,231.5,212.4,229.5,212.4,228.6 M220.5,241.1c-1.5,0.9-3.1,1.1-4,0.6c-0.2-0.1-0.4-0.3-0.5-0.5
		c-0.6-1,0.4-2.7,2.3-3.8c1.5-0.9,3.1-1.1,4-0.6c0.2,0.1,0.4,0.3,0.5,0.5C223.5,238.4,222.4,240,220.5,241.1 M222.9,231.9
		c-0.1,0.1-0.3,0-0.5-0.1c-0.9-0.5-2.4-2.5-3.9-5.1c-0.5-0.8-0.9-1.6-1.2-2.3c-1.1-2.2-1.5-3.9-1.1-4.2c0.1-0.1,0.3,0,0.5,0.1
		c0.6,0.4,1.6,1.5,2.7,3.2c0.4,0.6,0.8,1.3,1.2,2C222.4,228.7,223.5,231.6,222.9,231.9 M225.2,250.8c-0.8-0.5-1.5-3.3-1.5-6.4
		c0-3,0.7-5.1,1.5-4.6c0.8,0.5,1.5,3.3,1.5,6.4C226.7,249.2,226,251.3,225.2,250.8 M225.2,232.2c-0.8-0.5-1.5-3.3-1.5-6.4
		c0-1.4,0.1-2.5,0.4-3.4c0.1-0.2,0.1-0.4,0.2-0.6c0-0.1,0.1-0.2,0.1-0.2c0.1-0.1,0.1-0.3,0.2-0.3c0.1-0.1,0.1-0.1,0.2-0.2
		c0,0,0,0,0,0c0.1,0,0.2,0,0.2,0c0,0,0.1,0,0.1,0.1h0c0.8,0.5,1.5,3.3,1.5,6.4C226.7,230.6,226.1,232.7,225.2,232.2 M229.9,230.9
		c1.5-0.9,3.1-1.1,4-0.6c0.2,0.1,0.4,0.3,0.5,0.5c0.6,1-0.4,2.7-2.3,3.8c-1.5,0.9-3.1,1-4,0.6c-0.2-0.1-0.4-0.3-0.5-0.5
		C227,233.6,228,231.9,229.9,230.9 M234.3,251.7c-0.1,0.1-0.3,0-0.5-0.1c-0.9-0.5-2.4-2.5-3.9-5.1c-1.9-3.2-2.9-6.1-2.3-6.4
		c0.1-0.1,0.3,0,0.5,0.1c0.9,0.5,2.4,2.5,4,5.1C233.9,248.5,234.9,251.4,234.3,251.7 M233.3,242.4c-2.6-1.5-4.8-3.5-4.8-4.5
		c0-1,2.1-0.5,4.8,1c2.6,1.5,4.8,3.5,4.8,4.5C238.1,244.4,235.9,243.9,233.3,242.4"/>
	<path class="st20" d="M362.1,274.7l-17.8,7.7c-0.4,0.2-0.7,0.5-1.1,0.7c-0.1,0.1-0.2,0.1-0.2,0.2c-0.3,0.3-0.7,0.5-1,0.8
		c0,0-0.1,0.1-0.1,0.1c-0.3,0.3-0.6,0.6-0.8,0.9c-0.1,0.1-0.1,0.2-0.2,0.2c-0.3,0.3-0.5,0.7-0.8,1.1c0,0,0,0,0,0.1
		c0,0,0,0.1-0.1,0.1c-0.3,0.5-0.6,0.9-0.8,1.5c0,0,0,0,0,0c0,0,0,0,0,0c-0.2,0.4-0.4,0.8-0.5,1.2c0,0,0,0.1-0.1,0.1
		c0,0.1-0.1,0.2-0.1,0.3c-0.1,0.2-0.2,0.5-0.2,0.8c0,0.1-0.1,0.2-0.1,0.2c0,0.1,0,0.2-0.1,0.3c-0.1,0.2-0.1,0.4-0.2,0.6
		c0,0.1-0.1,0.2-0.1,0.3c0,0.1,0,0.2-0.1,0.3c0,0.2-0.1,0.4-0.1,0.6c0,0.1,0,0.2-0.1,0.3c0,0.1,0,0.2,0,0.3c0,0.2-0.1,0.3-0.1,0.5
		c0,0.1,0,0.2,0,0.3c0,0.1,0,0.3,0,0.4c0,0.2,0,0.3-0.1,0.5c0,0.1,0,0.1,0,0.2c0,0.2,0,0.4,0,0.6c0,0.1,0,0.3,0,0.4c0,0,0,0.1,0,0.1
		c0,0.4,0,0.8,0,1.1c0,0,0,0,0,0.1l0,13.1l36.2-21.1L362.1,274.7z"/>
	<path class="st12" d="M419.8,306.7c0-0.1,0-0.1,0-0.2c0-0.1,0-0.3,0-0.4c0-0.2,0-0.3,0-0.5c0-0.1,0-0.3,0-0.4c0-0.1,0-0.3,0-0.4
		c0-0.1,0-0.2,0-0.3c0-0.2,0-0.4-0.1-0.6c0-0.1,0-0.2,0-0.4c0,0,0-0.1,0-0.1c0-0.4-0.1-0.8-0.2-1.1c0,0,0,0,0,0c0-0.1,0-0.1,0-0.2
		c-0.1-0.3-0.1-0.6-0.2-1c0-0.1,0-0.1,0-0.2c0-0.2-0.1-0.3-0.1-0.5c0-0.2-0.1-0.4-0.1-0.6c0-0.1,0-0.2-0.1-0.3
		c0-0.2-0.1-0.3-0.1-0.5c0-0.1-0.1-0.3-0.1-0.4c0-0.2-0.1-0.3-0.1-0.5c0-0.2-0.1-0.3-0.1-0.5c0-0.1,0-0.2-0.1-0.2
		c-0.1-0.2-0.1-0.4-0.2-0.7c0-0.1-0.1-0.3-0.1-0.4c0,0,0-0.1,0-0.1c-0.1-0.4-0.2-0.8-0.4-1.2c0,0,0,0,0,0c0,0,0-0.1,0-0.1
		c-0.1-0.3-0.2-0.7-0.4-1c0-0.1,0-0.1-0.1-0.2c0-0.1-0.1-0.3-0.1-0.4c-0.1-0.2-0.1-0.4-0.2-0.6c0-0.1-0.1-0.2-0.1-0.4
		c-0.1-0.1-0.1-0.3-0.2-0.4c0-0.1-0.1-0.2-0.1-0.3c-0.1-0.2-0.2-0.4-0.3-0.6c0-0.1-0.1-0.2-0.1-0.3c0,0,0-0.1-0.1-0.1
		c-0.2-0.4-0.3-0.7-0.5-1.1c0,0,0,0,0,0c0-0.1-0.1-0.2-0.1-0.3c-0.1-0.3-0.3-0.6-0.4-0.9c0,0,0-0.1-0.1-0.1
		c-0.1-0.2-0.2-0.4-0.3-0.7c-0.1-0.2-0.2-0.4-0.3-0.6c0,0,0-0.1-0.1-0.1c-0.3-0.6-0.6-1.2-1-1.7c0,0-0.1-0.1-0.1-0.1
		c0-0.1-0.1-0.1-0.1-0.2c-0.5-0.8-1-1.6-1.5-2.4c0,0-0.1-0.1-0.1-0.1c0-0.1-0.1-0.1-0.1-0.2c-0.4-0.6-0.8-1.2-1.3-1.8c0,0,0,0,0,0
		l0,0c-0.3-0.4-0.6-0.8-0.9-1.2c0,0,0,0,0-0.1c-0.2-0.3-0.5-0.6-0.7-0.9c0-0.1-0.1-0.1-0.1-0.2c0,0,0,0,0,0c-0.3-0.3-0.6-0.7-0.9-1
		c0,0,0,0,0,0c-0.1-0.1-0.2-0.2-0.3-0.3c-0.2-0.2-0.4-0.4-0.6-0.6c0,0-0.1-0.1-0.1-0.1c-0.1-0.1-0.3-0.3-0.4-0.4
		c-0.1-0.2-0.3-0.3-0.4-0.5c-0.1-0.1-0.1-0.1-0.2-0.2c-0.1-0.1-0.3-0.3-0.4-0.4c-0.1-0.1-0.2-0.2-0.4-0.4c-0.1-0.1-0.1-0.1-0.2-0.2
		c-0.2-0.1-0.3-0.3-0.5-0.4c-0.1-0.1-0.2-0.2-0.3-0.3c-0.1-0.1-0.2-0.1-0.3-0.2c-0.2-0.1-0.3-0.3-0.5-0.4c-0.1-0.1-0.2-0.2-0.3-0.2
		c-0.1-0.1-0.2-0.2-0.3-0.3c-0.2-0.1-0.3-0.3-0.5-0.4c-0.1-0.1-0.2-0.1-0.2-0.2c-0.1-0.1-0.3-0.2-0.4-0.3c-0.1-0.1-0.3-0.2-0.4-0.3
		c-0.1,0-0.1-0.1-0.2-0.1c-0.2-0.1-0.4-0.3-0.5-0.4c-0.1-0.1-0.2-0.2-0.4-0.3c0,0-0.1,0-0.1-0.1c-0.3-0.2-0.6-0.4-1-0.6c0,0,0,0,0,0
		c0,0,0,0-0.1,0c-0.3-0.2-0.6-0.4-0.9-0.5c-0.1,0-0.1-0.1-0.2-0.1c-0.2-0.1-0.5-0.3-0.7-0.4c-0.1,0-0.2-0.1-0.3-0.1
		c-0.1-0.1-0.2-0.1-0.4-0.2c-0.1,0-0.2-0.1-0.3-0.1c-0.2-0.1-0.3-0.1-0.5-0.2c-0.1,0-0.2-0.1-0.3-0.2c0,0-0.1,0-0.1-0.1
		c-0.3-0.1-0.6-0.3-0.9-0.4c-0.3-0.1-0.6-0.2-0.9-0.3c0,0-0.1,0-0.1,0c-0.1,0-0.2-0.1-0.3-0.1c-0.2-0.1-0.3-0.1-0.5-0.2
		c-0.1,0-0.2,0-0.2-0.1c-0.1,0-0.3-0.1-0.4-0.1c-0.1,0-0.2-0.1-0.3-0.1c-0.1,0-0.2,0-0.3-0.1c-0.1,0-0.3-0.1-0.4-0.1
		c-0.1,0-0.1,0-0.2,0c-0.1,0-0.2,0-0.4-0.1c-0.2,0-0.3-0.1-0.5-0.1c-0.1,0-0.1,0-0.2,0c-0.1,0-0.3,0-0.4,0c-0.2,0-0.3,0-0.5,0
		c0,0-0.1,0-0.1,0c-0.1,0-0.2,0-0.3,0c-0.2,0-0.4,0-0.6,0c-0.1,0-0.1,0-0.2,0c-0.1,0-0.2,0-0.2,0c-0.2,0-0.5,0-0.7,0
		c-0.1,0-0.1,0-0.2,0c-0.1,0-0.1,0-0.2,0c-0.4,0-0.7,0.1-1.1,0.2c0,0-0.1,0-0.1,0c0,0,0,0,0,0c-0.5,0.1-1,0.2-1.4,0.4
		c0,0-0.1,0-0.1,0c0,0-0.1,0-0.1,0c-0.2,0.1-0.4,0.2-0.6,0.2c-0.1,0-0.2,0.1-0.3,0.1c-0.3,0.1-0.6,0.3-0.8,0.4c0,0,0,0,0,0
		l-35.1,20.4c0.3-0.2,0.6-0.3,0.8-0.4c0.1,0,0.2-0.1,0.3-0.1c0.2-0.1,0.4-0.2,0.6-0.2c0.1,0,0.1-0.1,0.2-0.1
		c0.5-0.2,0.9-0.3,1.4-0.4c0,0,0.1,0,0.1,0c0.3-0.1,0.7-0.1,1.1-0.2c0.1,0,0.2,0,0.4,0c0.2,0,0.5,0,0.7,0c0.1,0,0.3,0,0.4,0
		c0.2,0,0.4,0,0.6,0c0.2,0,0.3,0,0.5,0c0.2,0,0.3,0,0.5,0c0.2,0,0.4,0,0.5,0.1c0.2,0,0.3,0,0.5,0.1c0.2,0,0.4,0.1,0.6,0.1
		c0.1,0,0.3,0.1,0.4,0.1c0.2,0,0.4,0.1,0.6,0.2c0.1,0,0.3,0.1,0.4,0.1c0.2,0.1,0.5,0.1,0.7,0.2c0.1,0,0.2,0.1,0.3,0.1
		c0.7,0.2,1.4,0.5,2.1,0.8c0.1,0,0.2,0.1,0.3,0.2c0.2,0.1,0.5,0.2,0.7,0.4c0.1,0.1,0.2,0.1,0.4,0.2c0.3,0.2,0.7,0.4,1,0.5
		c0.4,0.2,0.7,0.4,1.1,0.7c0,0,0.1,0,0.1,0c0.4,0.2,0.7,0.5,1.1,0.7c0.1,0.1,0.2,0.2,0.4,0.3c0.2,0.2,0.5,0.3,0.7,0.5
		c0.1,0.1,0.3,0.2,0.4,0.3c0.2,0.2,0.4,0.3,0.6,0.5c0.2,0.1,0.3,0.2,0.5,0.4c0.2,0.2,0.4,0.3,0.6,0.5c0.2,0.1,0.3,0.3,0.5,0.4
		c0.2,0.2,0.4,0.3,0.6,0.5c0.2,0.1,0.3,0.3,0.5,0.4c0.2,0.2,0.4,0.4,0.6,0.6c0.1,0.1,0.3,0.3,0.4,0.4c0.2,0.2,0.4,0.4,0.6,0.6
		c0.1,0.1,0.3,0.3,0.4,0.4c0.2,0.2,0.4,0.5,0.7,0.7c0.1,0.1,0.2,0.2,0.3,0.3c0.3,0.4,0.6,0.7,0.9,1.1c0.1,0.1,0.1,0.1,0.2,0.2
		c0.3,0.3,0.5,0.6,0.8,0.9c0.3,0.4,0.6,0.8,0.9,1.2c0,0,0,0,0,0c0.4,0.6,0.9,1.2,1.3,1.8c0.1,0.1,0.2,0.2,0.2,0.3
		c0.5,0.8,1,1.6,1.5,2.4c0.1,0.1,0.1,0.2,0.2,0.3c0.3,0.6,0.7,1.2,1,1.7c0.1,0.2,0.2,0.4,0.3,0.6c0.1,0.2,0.2,0.4,0.3,0.7
		c0.2,0.3,0.3,0.7,0.5,1c0,0.1,0.1,0.2,0.1,0.3c0.2,0.4,0.4,0.8,0.6,1.3c0,0.1,0.1,0.2,0.1,0.3c0.1,0.3,0.3,0.6,0.4,0.9
		c0.1,0.1,0.1,0.3,0.2,0.4c0.1,0.3,0.2,0.6,0.4,0.9c0,0.1,0.1,0.3,0.1,0.4c0.1,0.4,0.3,0.8,0.4,1.2c0,0,0,0.1,0,0.1
		c0.1,0.4,0.3,0.9,0.4,1.3c0,0.1,0.1,0.3,0.1,0.4c0.1,0.3,0.2,0.6,0.3,0.9c0,0.2,0.1,0.3,0.1,0.5c0.1,0.3,0.1,0.6,0.2,0.8
		c0,0.2,0.1,0.3,0.1,0.5c0.1,0.3,0.1,0.6,0.2,0.9c0,0.2,0.1,0.3,0.1,0.5c0.1,0.4,0.1,0.8,0.2,1.1c0,0.1,0,0.1,0,0.2
		c0.1,0.4,0.1,0.9,0.2,1.3c0,0.1,0,0.2,0,0.4c0,0.3,0.1,0.6,0.1,0.9c0,0.1,0,0.3,0,0.4c0,0.3,0,0.6,0.1,0.9c0,0.1,0,0.3,0,0.4
		c0,0.4,0,0.8,0,1.2c0,0.4,0,0.8,0,1.2c0,0.1,0,0.2,0,0.3c0,0.3,0,0.6-0.1,0.8c0,0.2,0,0.3,0,0.5c0,0.2-0.1,0.5-0.1,0.7
		c0,0.2,0,0.3-0.1,0.5c0,0.2-0.1,0.4-0.1,0.6c0,0.2-0.1,0.4-0.1,0.5c0,0.2-0.1,0.4-0.1,0.5c-0.1,0.2-0.1,0.4-0.2,0.6
		c0,0.2-0.1,0.3-0.1,0.5c-0.1,0.2-0.2,0.5-0.2,0.7c0,0.1-0.1,0.3-0.1,0.4c-0.2,0.4-0.3,0.8-0.5,1.1c0,0,0,0.1-0.1,0.1
		c-0.2,0.5-0.5,1-0.8,1.4c0,0,0,0.1-0.1,0.1c-0.2,0.4-0.5,0.7-0.7,1c-0.1,0.1-0.1,0.2-0.2,0.2c-0.2,0.3-0.5,0.6-0.8,0.9
		c0,0,0,0-0.1,0.1c-0.3,0.3-0.6,0.5-0.9,0.8c-0.1,0.1-0.2,0.1-0.2,0.2c-0.3,0.2-0.6,0.5-1,0.7l35.1-20.4c0.3-0.2,0.7-0.4,1-0.7
		c0.1-0.1,0.2-0.1,0.2-0.2c0.3-0.2,0.6-0.5,0.9-0.8c0,0,0,0,0.1-0.1c0.3-0.3,0.5-0.6,0.8-0.9c0.1-0.1,0.1-0.2,0.2-0.2
		c0.3-0.3,0.5-0.7,0.7-1c0,0,0,0,0,0c0,0,0-0.1,0-0.1c0.3-0.4,0.5-0.9,0.8-1.4c0,0,0,0,0-0.1c0,0,0,0,0,0c0.2-0.4,0.3-0.8,0.5-1.1
		c0,0,0-0.1,0-0.1c0-0.1,0.1-0.2,0.1-0.3c0.1-0.2,0.2-0.5,0.2-0.7c0-0.1,0-0.1,0.1-0.2c0-0.1,0-0.2,0.1-0.3c0.1-0.2,0.1-0.4,0.2-0.6
		c0-0.1,0-0.2,0.1-0.3c0-0.1,0-0.2,0.1-0.3c0-0.2,0.1-0.4,0.1-0.5c0-0.1,0-0.2,0.1-0.3c0-0.1,0-0.2,0.1-0.3c0-0.2,0.1-0.3,0.1-0.5
		c0-0.1,0-0.2,0-0.3c0-0.1,0-0.3,0-0.4c0-0.2,0-0.3,0-0.5c0-0.1,0-0.1,0-0.2c0-0.2,0-0.4,0-0.6c0-0.1,0-0.2,0-0.3c0,0,0-0.1,0-0.1
		c0-0.4,0-0.7,0-1.1v-0.1C419.9,307.4,419.8,307,419.8,306.7"/>
	<path class="st21" d="M362.2,289.1c12.5,7.2,22.6,24.7,22.5,39c0,14.3-10.2,20.1-22.7,12.9c-12.5-7.2-22.6-24.7-22.5-39
		C339.6,287.6,349.8,281.9,362.2,289.1"/>
	<path class="st21" d="M362.2,300.3c0.8,0.5,1.5,3.3,1.5,6.4c0,3-0.7,5.1-1.5,4.6c-0.8-0.5-1.5-3.3-1.5-6.3
		C360.7,301.8,361.4,299.8,362.2,300.3"/>
	<path class="st21" d="M359.3,315.9c0.2,0.1,0.4,0.3,0.5,0.5c0.6,1-0.5,2.7-2.3,3.8c-1.5,0.9-3.1,1.1-4,0.6
		c-0.2-0.1-0.4-0.3-0.5-0.5c-0.6-1,0.5-2.7,2.3-3.8C356.9,315.6,358.5,315.4,359.3,315.9"/>
	<path class="st21" d="M354.1,308.6c2.6,1.5,4.8,3.5,4.8,4.5c0,1-2.1,0.5-4.8-1c-2.6-1.5-4.8-3.5-4.8-4.5
		C349.3,306.7,351.4,307.1,354.1,308.6"/>
	<path class="st21" d="M362.1,318.9c0.8,0.5,1.5,3.3,1.5,6.4c0,3-0.7,5.1-1.5,4.6c-0.8-0.5-1.5-3.3-1.5-6.3
		C360.6,320.4,361.3,318.4,362.1,318.9"/>
	<path class="st21" d="M365,319.2c0.9,0.5,2.4,2.5,4,5.1c1.9,3.2,2.9,6.1,2.3,6.4c-0.1,0.1-0.3,0-0.5-0.1c-0.9-0.5-2.4-2.5-4-5.1
		c-1.9-3.2-2.9-6.1-2.3-6.4C364.6,319,364.8,319.1,365,319.2"/>
	<path class="st21" d="M370.3,318c2.6,1.5,4.8,3.5,4.8,4.5c0,1-2.1,0.5-4.8-1c-2.6-1.5-4.8-3.5-4.8-4.5
		C365.5,316,367.6,316.5,370.3,318"/>
	<path class="st21" d="M353.6,299.4c0.9,0.5,2.4,2.5,4,5.1c1.9,3.2,2.9,6.1,2.3,6.4c-0.1,0.1-0.3,0-0.5-0.1c-0.9-0.5-2.5-2.5-4-5.1
		c-1.9-3.2-2.9-6.1-2.3-6.4C353.2,299.3,353.4,299.3,353.6,299.4"/>
	<path class="st21" d="M370.8,309.4c0.2,0.1,0.4,0.3,0.5,0.5c0.6,1-0.5,2.7-2.3,3.8c-1.5,0.9-3.1,1.1-4,0.6
		c-0.2-0.1-0.4-0.3-0.5-0.5c-0.6-1,0.5-2.7,2.3-3.8C368.4,309.1,369.9,308.9,370.8,309.4"/>
	<path class="st22" d="M362.2,297.8c-0.4-0.3-0.9-0.5-1.3-0.7c-7.3-3.5-13.1-0.1-13.7,8c0,0.4-0.1,0.9-0.1,1.3c0,9.5,6.7,21.2,15,26
		c8.3,4.8,15.1,0.9,15.1-8.6C377.2,314.2,370.5,302.6,362.2,297.8 M366.8,309.9c1.5-0.9,3.1-1.1,4-0.6c0.2,0.1,0.4,0.3,0.5,0.5
		c0.6,1-0.4,2.7-2.3,3.8c-1.5,0.9-3.1,1.1-4,0.6c-0.2-0.1-0.4-0.3-0.5-0.5C363.9,312.7,365,311,366.8,309.9 M349.3,307.6
		c0-1,2.1-0.5,4.8,1c2.6,1.5,4.8,3.5,4.8,4.5c0,0.9-2.1,0.5-4.8-1C351.4,310.6,349.3,308.6,349.3,307.6 M357.5,320.1
		c-1.5,0.9-3.1,1.1-4,0.6c-0.2-0.1-0.4-0.3-0.5-0.5c-0.6-1,0.4-2.7,2.3-3.8c1.5-0.9,3.1-1.1,4-0.6c0.2,0.1,0.4,0.3,0.5,0.5
		C360.4,317.4,359.3,319.1,357.5,320.1 M359.8,311c-0.1,0.1-0.3,0-0.5-0.1c-0.9-0.5-2.4-2.5-3.9-5.1c-0.9-1.6-1.6-3.1-2.1-4.3
		c-0.4-1.2-0.5-2-0.2-2.1c0.1-0.1,0.3,0,0.5,0.1c0.3,0.2,0.8,0.6,1.2,1.2c0.8,0.9,1.8,2.3,2.7,3.9
		C359.4,307.8,360.4,310.6,359.8,311 M362.1,329.8c-0.8-0.5-1.5-3.3-1.5-6.4c0-3,0.7-5.1,1.5-4.6c0.8,0.5,1.5,3.3,1.5,6.4
		C363.6,328.2,362.9,330.3,362.1,329.8 M362.2,311.2c-0.8-0.5-1.5-3.3-1.5-6.3c0-3,0.7-5.1,1.5-4.6c0.8,0.5,1.5,3.3,1.5,6.4
		C363.7,309.6,363,311.7,362.2,311.2 M371.2,330.7c-0.1,0.1-0.3,0-0.5-0.1c-0.9-0.5-2.4-2.5-3.9-5.1c-1.9-3.2-2.9-6.1-2.3-6.4
		c0.1-0.1,0.3,0,0.5,0.1c0.9,0.5,2.5,2.5,4,5.1C370.8,327.5,371.8,330.4,371.2,330.7 M370.2,321.4c-2.6-1.5-4.8-3.5-4.8-4.5
		c0-0.9,2.1-0.5,4.8,1c2.6,1.5,4.8,3.5,4.8,4.5C375,323.4,372.9,323,370.2,321.4"/>
	<path class="st23" d="M394.7,286.8l-0.1,46.2l0,3.5l0,6.1h0c-1.1,0-2.1-0.2-3-0.5l-1.6-0.9l-4.8-2.8l-0.4-0.3l0-13.1
		c0-11.3-5.9-24.5-14.5-33.6c-2.8-3-5.9-5.6-9.2-7.4c-1.8-1-3.5-1.8-5.2-2.3c-3.5-1.1-6.8-1.2-9.5-0.3c0,0,0,0,0,0
		c-0.7,0.2-1.3,0.5-1.9,0.8c-0.1,0-0.1,0.1-0.2,0.1c-0.2,0.1-0.5,0.3-0.7,0.4c0,0-0.1,0-0.1,0.1c-0.2,0.2-0.5,0.4-0.7,0.5
		c-0.5,0.4-0.9,0.8-1.4,1.3c-0.2,0.2-0.4,0.5-0.6,0.8c-0.2,0.3-0.4,0.5-0.6,0.8c-0.2,0.3-0.3,0.5-0.5,0.8c0,0.1-0.1,0.1-0.1,0.2
		c-0.3,0.6-0.6,1.2-0.9,1.8c-0.1,0.3-0.2,0.6-0.3,0.9c0,0.1-0.1,0.1-0.1,0.2c-0.1,0.3-0.2,0.7-0.3,1c-0.1,0.3-0.1,0.6-0.2,0.9
		c-0.1,0.2-0.1,0.5-0.1,0.7c0,0.2-0.1,0.3-0.1,0.5v0c0,0.2-0.1,0.3-0.1,0.5c0,0,0,0,0,0.1c-0.1,0.3-0.1,0.7-0.1,1
		c0,0.3-0.1,0.7-0.1,1c0,0.6-0.1,1.1-0.1,1.7l0,13.1v0l-89-51.4l-0.5-0.3l0-13.1c0-9.9-4.5-21.2-11.4-29.9
		c-3.6-4.6-7.8-8.5-12.3-11.1c-1.8-1-3.6-1.8-5.3-2.4c-3.5-1.1-6.6-1.2-9.4-0.3c0,0,0,0-0.1,0c-0.7,0.2-1.4,0.5-2,0.9
		c0,0-0.1,0-0.1,0.1c-0.3,0.1-0.5,0.3-0.7,0.5c0,0-0.1,0.1-0.1,0.1c-0.2,0.2-0.4,0.3-0.7,0.5c-0.2,0.2-0.5,0.4-0.7,0.6
		c-0.2,0.2-0.4,0.4-0.6,0.6c-0.1,0.1-0.3,0.3-0.4,0.5c-0.1,0.1-0.2,0.2-0.3,0.4c0,0-0.1,0.1-0.1,0.1c-0.2,0.2-0.4,0.5-0.5,0.7
		c-0.1,0.1-0.1,0.2-0.2,0.3c-0.1,0.2-0.2,0.4-0.4,0.6c-0.2,0.3-0.3,0.6-0.4,0.8c0,0,0,0.1-0.1,0.1c-0.1,0.3-0.2,0.5-0.3,0.8
		c-0.1,0.3-0.2,0.5-0.3,0.8c-0.1,0.2-0.2,0.5-0.2,0.7c0,0,0,0,0,0.1c-0.1,0.2-0.1,0.3-0.1,0.5c-0.1,0.2-0.1,0.4-0.2,0.6
		c0,0.2-0.1,0.4-0.1,0.5c0,0,0,0,0,0c-0.1,0.2-0.1,0.4-0.1,0.6c-0.1,0.2-0.1,0.4-0.1,0.6c0,0.2-0.1,0.4-0.1,0.6
		c0,0.2-0.1,0.4-0.1,0.6c0,0.1,0,0.2,0,0.3c0,0.3-0.1,0.7-0.1,1c0,0.6-0.1,1.1-0.1,1.7l0,13.1l-1.9-1.1c-3.7-2.1-6-6.1-5.9-10.3
		l0-9.4c0-14.6,4.1-29,11.9-41.4c1.7-2.7,3.2-4.7,4.3-5.3c0.2-0.1,0.5-0.3,0.7-0.4c0.2-0.1,0.4-0.2,0.6-0.3c0.1-0.1,0.3-0.1,0.4-0.2
		c0.3-0.1,0.5-0.2,0.8-0.3c0,0,0.1,0,0.1,0c0,0,0.1,0,0.1,0c0.2-0.1,0.4-0.1,0.6-0.2c0.1-0.1,0.3-0.1,0.4-0.1c0.2,0,0.3-0.1,0.5-0.1
		c0.3-0.1,0.5-0.1,0.8-0.2c0.1,0,0.1,0,0.2,0c0.3-0.1,0.5-0.1,0.8-0.1c0.2,0,0.5-0.1,0.7-0.1c0.2,0,0.4,0,0.5,0c0.3,0,0.7,0,1-0.1h0
		c0.2,0,0.4,0,0.6,0c0.3,0,0.6,0,0.8,0c0.2,0,0.5,0,0.7,0c0.2,0,0.5,0,0.7,0.1c0.1,0,0.3,0,0.4,0c0.2,0,0.4,0.1,0.6,0.1
		c0.1,0,0.3,0,0.4,0.1c0.3,0,0.6,0.1,0.8,0.2c0.2,0,0.4,0.1,0.6,0.1c0.3,0.1,0.6,0.1,0.9,0.2c0.2,0.1,0.4,0.1,0.6,0.2
		c0.3,0.1,0.7,0.2,1,0.3c0.1,0,0.2,0.1,0.2,0.1c0.3,0.1,0.5,0.2,0.8,0.3c0.1,0,0.1,0,0.2,0.1c0.5,0.2,1,0.4,1.5,0.6
		c0.2,0.1,0.5,0.2,0.7,0.3c0.2,0.1,0.3,0.1,0.5,0.2c0.2,0.1,0.3,0.2,0.5,0.2c0,0,0,0,0,0c0.2,0.1,0.3,0.2,0.5,0.3
		c0.1,0.1,0.2,0.1,0.3,0.2c0.1,0,0.1,0.1,0.2,0.1c0.5,0.3,1,0.5,1.4,0.8l0.2,0.1l25.7,14.8l3.2,1.9l21.9,12.7l40.9,23.6l0,0l0.3,0.1
		v0l3.5,2l48.7,28.1l9.3,8.1c0,0,0,0,0,0l2.5,2.2c0.4,0.9,0.8,1.8,1.1,2.7c0.1,0.2,0.2,0.4,0.2,0.5c0,0,0,0,0,0
		c0,0.1,0.1,0.2,0.1,0.3c0.2,0.5,0.4,1,0.6,1.5c0,0,0,0,0,0c0.1,0.2,0.2,0.4,0.2,0.7c0.1,0.3,0.2,0.6,0.3,0.8c0,0.1,0.1,0.3,0.1,0.4
		c0.3,1,0.7,2,0.9,3c0,0.2,0.1,0.3,0.1,0.5c0,0.1,0.1,0.2,0.1,0.3c0.2,0.8,0.5,1.7,0.7,2.5c0,0,0,0.1,0,0.1c0,0.2,0.1,0.3,0.1,0.5
		c0.1,0.4,0.2,0.9,0.3,1.3c0.1,0.5,0.2,1.1,0.3,1.6c0,0.1,0.1,0.3,0.1,0.4c0,0.1,0.1,0.3,0.1,0.4c0.1,0.9,0.3,1.7,0.4,2.5
		c0,0.1,0,0.2,0,0.3c0,0.1,0,0.2,0,0.4c0,0.4,0.1,0.8,0.1,1.1c0.1,0.5,0.1,1,0.1,1.5c0,0,0,0.1,0,0.1c0,0.1,0,0.1,0,0.2
		c0,0.5,0.1,0.9,0.1,1.4C394.7,285.8,394.7,286.3,394.7,286.8"/>
	<path class="st24" d="M211.2,163c0.2-0.1,0.5-0.2,0.7-0.2c0.1,0,0.3-0.1,0.4-0.1c0.3-0.1,0.6-0.2,1-0.2c0.1,0,0.2,0,0.3-0.1
		c0.1,0,0.1,0,0.2,0c0.5-0.1,1-0.2,1.5-0.2c0.2,0,0.4,0,0.5,0c0.3,0,0.7,0,1,0c0.2,0,0.4,0,0.6,0c0.3,0,0.6,0,0.8,0
		c0.2,0,0.5,0,0.7,0c0.2,0,0.5,0,0.7,0.1c0.3,0,0.5,0.1,0.8,0.1c0.2,0,0.4,0.1,0.7,0.1c0.3,0,0.6,0.1,0.8,0.2c0.2,0,0.4,0.1,0.6,0.1
		c0.3,0.1,0.6,0.1,0.9,0.2c0.2,0.1,0.4,0.1,0.6,0.2c0.3,0.1,0.7,0.2,1,0.3c0.2,0.1,0.3,0.1,0.5,0.2c0.5,0.2,1,0.4,1.5,0.6
		c0,0,0.1,0,0.1,0c0.5,0.2,0.9,0.4,1.4,0.6c0.2,0.1,0.3,0.2,0.5,0.2c0.4,0.2,0.7,0.3,1.1,0.5c0.2,0.1,0.4,0.2,0.5,0.3
		c0.5,0.3,1,0.5,1.4,0.8l105.3-61.2c-0.3-0.2-0.7-0.4-1-0.6c-0.1-0.1-0.3-0.1-0.4-0.2c-0.2-0.1-0.4-0.2-0.5-0.3
		c-0.1-0.1-0.3-0.1-0.4-0.2c-0.2-0.1-0.4-0.2-0.7-0.3c-0.2-0.1-0.3-0.2-0.5-0.2c-0.1,0-0.1-0.1-0.2-0.1c-0.4-0.2-0.8-0.4-1.2-0.5
		c0,0-0.1,0-0.1,0c0,0,0,0,0,0c-0.4-0.2-0.9-0.3-1.3-0.5c-0.1,0-0.1,0-0.2-0.1c-0.2-0.1-0.3-0.1-0.5-0.2c-0.2-0.1-0.5-0.2-0.7-0.2
		c-0.1,0-0.2-0.1-0.3-0.1c-0.2-0.1-0.4-0.1-0.6-0.2c-0.2,0-0.3-0.1-0.5-0.1c-0.1,0-0.3-0.1-0.4-0.1c-0.2,0-0.4-0.1-0.6-0.1
		c-0.1,0-0.2-0.1-0.3-0.1c-0.2,0-0.3-0.1-0.5-0.1c-0.2,0-0.4-0.1-0.7-0.1c-0.1,0-0.2,0-0.3,0c-0.2,0-0.3,0-0.5-0.1
		c-0.2,0-0.5-0.1-0.7-0.1c-0.1,0-0.2,0-0.2,0c-0.2,0-0.3,0-0.5,0c-0.3,0-0.6,0-0.8,0c-0.1,0-0.2,0-0.3,0c-0.1,0-0.2,0-0.4,0
		c-0.3,0-0.7,0-1,0c-0.1,0-0.2,0-0.3,0c-0.1,0-0.1,0-0.2,0c-0.5,0.1-1,0.1-1.5,0.2c0,0-0.1,0-0.1,0c0,0,0,0,0,0
		c-0.1,0-0.2,0-0.3,0.1c-0.3,0.1-0.6,0.1-1,0.2c-0.1,0-0.3,0.1-0.4,0.1c-0.2,0.1-0.4,0.1-0.6,0.2c0,0-0.1,0-0.1,0.1
		c-0.3,0.1-0.6,0.2-0.9,0.4c-0.1,0.1-0.3,0.1-0.4,0.2c-0.4,0.2-0.8,0.4-1.3,0.7l-105.3,61.2c0.4-0.2,0.8-0.5,1.3-0.6
		c0.1-0.1,0.3-0.1,0.4-0.2C210.6,163.2,210.9,163.1,211.2,163"/>
	<polygon class="st25" points="232.3,166.5 337.5,105.3 482,188.7 376.7,249.9 	"/>
	<path class="st26" d="M500,225.6l-0.1,51.1c0,3.7-2,7.1-5.2,9l-42.4,24.6l-53.3,31c0,0,0,0,0,0l-1.2,0.7c-0.9,0.4-2,0.6-3.1,0.6
		l0-6.1l0-3.5l0.1-46.2c0-0.5,0-1,0-1.5c0-0.4,0-0.9-0.1-1.4c0-0.1,0-0.1,0-0.2c0,0,0-0.1,0-0.1c0-0.5-0.1-1-0.1-1.5
		c0-0.4-0.1-0.8-0.1-1.1c0-0.1,0-0.2,0-0.4c0-0.1,0-0.2,0-0.3c-0.1-0.8-0.2-1.7-0.4-2.5c0-0.1,0-0.3-0.1-0.4c0-0.1,0-0.3-0.1-0.4
		c-0.1-0.5-0.2-1-0.3-1.6c-0.1-0.6-0.3-1.3-0.4-1.9c-0.2-0.8-0.4-1.7-0.7-2.5c-0.1-0.3-0.1-0.5-0.2-0.8c-0.3-1-0.6-2-1-3
		c0-0.1-0.1-0.3-0.1-0.4c-0.1-0.3-0.2-0.6-0.3-0.8h0c-0.1-0.2-0.1-0.4-0.2-0.7c0,0,0,0,0,0c-0.2-0.6-0.5-1.2-0.7-1.8c0,0,0,0,0,0
		c-0.1-0.2-0.1-0.4-0.2-0.5c-0.8-1.8-2.1-3.5-3.6-4.8c0,0,0,0,0,0l-9.3-8.1L482,188.7l10,8.8c0.9,1.2,1.8,2.4,2.7,3.7c0,0,0,0,0,0
		c0.1,0.3,0.3,0.7,0.4,1c0,0.1,0.1,0.2,0.1,0.3c0,0.1,0.1,0.2,0.1,0.3c0.2,0.6,0.4,1.1,0.6,1.7c0.1,0.3,0.3,0.7,0.4,1.1
		c0,0.1,0.1,0.3,0.1,0.4c0,0.1,0.1,0.2,0.1,0.3c0.2,0.6,0.4,1.2,0.6,1.8c0.1,0.3,0.2,0.6,0.3,0.8c0,0.2,0.1,0.3,0.1,0.5
		c0.1,0.2,0.1,0.3,0.2,0.5c0.2,0.6,0.3,1.2,0.5,1.9c0,0.2,0.1,0.4,0.1,0.6c0,0.2,0.1,0.3,0.1,0.5l0.2,0.8c0.1,0.6,0.3,1.2,0.4,1.8
		c0,0.1,0,0.2,0.1,0.3c0,0.1,0.1,0.3,0.1,0.4c0.1,0.4,0.1,0.7,0.2,1.1c0.1,0.6,0.2,1.2,0.3,1.7c0,0.1,0,0.1,0,0.2c0,0.1,0,0.2,0,0.3
		c0,0.4,0.1,0.9,0.1,1.3c0.1,0.6,0.1,1.1,0.1,1.7v0c0,0,0,0.1,0,0.1c0,0.5,0.1,1,0.1,1.5C500,224.6,500,225.1,500,225.6"/>
	<path class="st21" d="M333.6,171.3c13.1,7.5,24.9,23.1,30.4,39.9l12.7,38.8l-144.2-83.3l15.3-24.3c5.9-9.3,17.4-10.6,29.8-3.4
		L333.6,171.3z"/>
	<path class="st12" d="M469.2,149.9c0-0.1-0.1-0.3-0.1-0.4c-0.2-0.6-0.4-1.1-0.6-1.7c-0.1-0.2-0.2-0.5-0.3-0.7
		c-0.1-0.1-0.1-0.3-0.2-0.4c-0.1-0.2-0.1-0.3-0.2-0.5c-0.2-0.5-0.4-1.1-0.7-1.6c-0.1-0.2-0.2-0.4-0.3-0.6c-0.1-0.1-0.1-0.3-0.2-0.4
		c-0.1-0.2-0.2-0.4-0.3-0.6c-0.2-0.5-0.5-1.1-0.7-1.6c-0.1-0.1-0.1-0.3-0.2-0.4c-0.1-0.2-0.1-0.3-0.2-0.5c-0.1-0.3-0.3-0.6-0.4-0.8
		c-0.3-0.6-0.6-1.2-1-1.9c0,0,0,0,0,0c0,0,0,0,0,0c0,0,0-0.1-0.1-0.1c-0.5-1-1-1.9-1.6-2.9c0,0,0,0,0-0.1c-0.5-0.8-1-1.7-1.5-2.5
		c-0.2-0.2-0.3-0.5-0.5-0.7c-0.2-0.4-0.5-0.8-0.7-1.1c-0.1-0.2-0.3-0.4-0.4-0.5c-0.3-0.5-0.7-1-1-1.5c-0.2-0.3-0.4-0.5-0.6-0.8
		c-0.2-0.2-0.3-0.4-0.5-0.6c-0.2-0.2-0.4-0.5-0.5-0.7c-0.2-0.2-0.3-0.4-0.4-0.6c-0.4-0.5-0.9-1.1-1.3-1.6c0,0,0,0,0,0c0,0,0,0,0,0
		c-0.4-0.5-0.8-1-1.3-1.5c-0.2-0.2-0.4-0.4-0.6-0.7c-0.1-0.1-0.3-0.3-0.4-0.4c-0.1-0.1-0.2-0.2-0.3-0.4c-0.5-0.5-0.9-1-1.4-1.4
		c-0.1-0.1-0.1-0.1-0.2-0.2c-0.1-0.1-0.2-0.2-0.4-0.3c-0.3-0.3-0.6-0.6-0.9-0.9c-0.3-0.3-0.6-0.5-0.8-0.8c-0.1-0.1-0.3-0.3-0.4-0.4
		c-0.1-0.1-0.2-0.2-0.2-0.2c-0.5-0.4-1-0.9-1.5-1.3c-0.1-0.1-0.2-0.1-0.3-0.2c-0.1-0.1-0.3-0.2-0.4-0.3c-0.3-0.2-0.6-0.5-0.8-0.7
		c-0.3-0.3-0.7-0.5-1-0.8c-0.1-0.1-0.2-0.2-0.3-0.2c0,0-0.1-0.1-0.1-0.1c-0.5-0.4-1-0.7-1.5-1c-0.2-0.1-0.3-0.2-0.5-0.3
		c-0.1-0.1-0.3-0.2-0.4-0.3c-0.2-0.1-0.3-0.2-0.5-0.3c-0.5-0.3-0.9-0.6-1.4-0.9c-0.1-0.1-0.2-0.1-0.3-0.2l-55.9-32.3
		c-0.4-0.2-0.7-0.4-1.1-0.6c-0.1-0.1-0.3-0.1-0.4-0.2c-0.2-0.1-0.4-0.2-0.5-0.3c-0.1-0.1-0.3-0.2-0.4-0.2c-0.2-0.1-0.4-0.2-0.6-0.3
		c-0.2-0.1-0.3-0.2-0.5-0.2c-0.1,0-0.1-0.1-0.2-0.1c-0.4-0.2-0.7-0.3-1.1-0.5c-0.1,0-0.1-0.1-0.2-0.1c0,0,0,0,0,0
		c-0.5-0.2-0.9-0.4-1.4-0.5c0,0-0.1,0-0.1,0c-0.2-0.1-0.3-0.1-0.5-0.2c-0.3-0.1-0.5-0.2-0.8-0.3c-0.1,0-0.2,0-0.3-0.1
		c-0.2-0.1-0.4-0.1-0.6-0.2c-0.2,0-0.4-0.1-0.5-0.1c-0.1,0-0.3-0.1-0.4-0.1c-0.2,0-0.4-0.1-0.6-0.1c-0.1,0-0.3-0.1-0.4-0.1
		c-0.2,0-0.3-0.1-0.5-0.1c-0.2,0-0.5-0.1-0.7-0.1c-0.1,0-0.2,0-0.3-0.1c-0.2,0-0.3,0-0.5,0c-0.3,0-0.5-0.1-0.8-0.1
		c-0.1,0-0.2,0-0.3,0c-0.1,0-0.3,0-0.4,0c-0.3,0-0.6,0-0.9,0c-0.1,0-0.2,0-0.3,0c-0.1,0-0.2,0-0.3,0c-0.3,0-0.7,0-1,0
		c-0.1,0-0.2,0-0.4,0c-0.1,0-0.1,0-0.2,0c-0.6,0.1-1.1,0.1-1.7,0.2c0,0,0,0-0.1,0c0,0,0,0,0,0c0,0-0.1,0-0.1,0
		c-0.4,0.1-0.8,0.2-1.2,0.3c-0.1,0-0.3,0.1-0.4,0.1c-0.2,0.1-0.4,0.1-0.7,0.2c0,0-0.1,0-0.1,0.1c-0.3,0.1-0.6,0.2-0.9,0.4
		c-0.1,0.1-0.3,0.1-0.4,0.2c-0.4,0.2-0.9,0.4-1.3,0.7l-105.3,61.2c0.4-0.2,0.8-0.5,1.3-0.7c0.1-0.1,0.3-0.1,0.4-0.2
		c0.3-0.1,0.6-0.3,0.9-0.4c0.3-0.1,0.5-0.2,0.8-0.3c0.1,0,0.3-0.1,0.4-0.1c0.4-0.1,0.8-0.2,1.2-0.3c0,0,0.1,0,0.1,0c0,0,0,0,0.1,0
		c0.5-0.1,1.1-0.2,1.7-0.2c0.2,0,0.4,0,0.6,0c0.3,0,0.7,0,1,0c0.2,0,0.4,0,0.6,0c0.3,0,0.6,0,0.9,0c0.2,0,0.5,0,0.7,0
		c0.2,0,0.5,0,0.8,0.1c0.3,0,0.5,0.1,0.8,0.1c0.2,0,0.5,0.1,0.7,0.1c0.3,0,0.6,0.1,0.9,0.2c0.2,0,0.4,0.1,0.6,0.1
		c0.3,0.1,0.6,0.2,0.9,0.2c0.2,0.1,0.4,0.1,0.6,0.2c0.3,0.1,0.7,0.2,1,0.3c0.2,0.1,0.3,0.1,0.5,0.2c0.5,0.2,1,0.4,1.5,0.6
		c0.1,0,0.1,0.1,0.2,0.1c0.4,0.2,0.9,0.4,1.3,0.6c0.2,0.1,0.3,0.2,0.5,0.2c0.4,0.2,0.7,0.3,1.1,0.5c0.2,0.1,0.4,0.2,0.5,0.3
		c0.5,0.3,1,0.5,1.4,0.8l55.9,32.3c0.7,0.4,1.5,0.9,2.2,1.4c0.1,0.1,0.3,0.2,0.4,0.3c0.7,0.5,1.4,1,2.1,1.5c0.1,0.1,0.2,0.1,0.3,0.2
		c0.6,0.5,1.3,1,1.9,1.5c0.1,0.1,0.3,0.2,0.4,0.3c0.7,0.6,1.3,1.2,2,1.8c0.1,0.1,0.3,0.3,0.4,0.4c0.6,0.5,1.2,1.1,1.7,1.7
		c0.1,0.1,0.2,0.2,0.4,0.4c0.6,0.6,1.3,1.3,1.9,2c0.1,0.1,0.3,0.3,0.4,0.4c0.6,0.7,1.3,1.4,1.9,2.2c0,0,0,0,0,0
		c0.6,0.7,1.2,1.4,1.7,2.2c0.2,0.2,0.4,0.5,0.5,0.7c0.4,0.5,0.7,0.9,1,1.4c0.3,0.5,0.7,1,1,1.5c0.4,0.5,0.7,1.1,1.1,1.7
		c0.2,0.2,0.3,0.5,0.5,0.7c0.5,0.8,1.1,1.7,1.6,2.6c0.6,0.9,1.1,1.9,1.6,2.9c0,0,0,0.1,0.1,0.1c0,0,0,0,0,0c0.5,0.9,0.9,1.8,1.4,2.7
		c0.1,0.2,0.1,0.3,0.2,0.5c0.4,0.9,0.8,1.8,1.2,2.6c0.1,0.1,0.1,0.3,0.2,0.4c0.4,0.9,0.7,1.8,1.1,2.7c0.1,0.1,0.1,0.3,0.2,0.4
		c0.4,1,0.7,1.9,1,2.9l12.7,38.8L482,188.7L469.2,149.9z"/>
	<path class="st27" d="M367.8,209.6c-0.3-1-0.7-2.1-1.1-3.1c0,0-0.2-0.4-0.2-0.5c-0.4-1-0.7-1.9-1.1-2.8l-0.2-0.4
		c-0.4-1-0.8-1.9-1.3-2.8c0-0.1-0.2-0.4-0.2-0.4c-0.3-0.6-0.6-1.2-0.9-1.8v-0.4l-0.7-1c0-0.1-0.2-0.4-0.2-0.4
		c-0.5-0.8-0.9-1.7-1.4-2.5c-0.2-0.3-0.3-0.6-0.5-0.8l74.9-43.6l21.9-12.4l5.4,9.9l12.9,39.9l-45.2,26.3l-51.3,29.8L367.8,209.6z"/>
	<polygon class="st27" points="324.5,183.1 324.5,219.7 265.5,185.7 284.1,159.8 	"/>
	<path class="st27" d="M278.6,152.5l-17.9,26.2l-18.3-10.6l12.2-21.3c2.2-3.8,6.6-4.4,11.4-1.6L278.6,152.5z"/>
	<path class="st27" d="M339.5,187.7c4.9,2.8,9.4,8.7,11.5,15l11.3,34.6l-31.2-17.9l0.1-36.5L339.5,187.7z"/>
	<polygon class="st21" points="258.2,181.5 326.8,221.1 329.6,176.3 289.1,152.1 276.8,159.8 264.1,178.8 	"/>
	<path class="st28" d="M367.8,209.6c-0.3-1-0.7-2.1-1.1-3.1c0,0-0.2-0.4-0.2-0.5c-0.4-1-0.7-1.9-1.1-2.8l-0.2-0.4
		c-0.4-1-0.8-1.9-1.3-2.8c0-0.1-0.2-0.4-0.2-0.4c-0.3-0.6-0.6-1.2-0.9-1.8v-0.4l-0.7-1c0-0.1-0.2-0.4-0.2-0.4
		c-0.5-0.8-0.9-1.7-1.4-2.5c-0.2-0.3-0.3-0.6-0.5-0.8l74.9-43.6l21.9-12.4l5.4,9.9l12.9,39.9l-45.2,26.3l-51.3,29.8L367.8,209.6z"/>
	<path class="st21" d="M243.1,186.4c3,1.8,5.5,6,5.5,9.5l0,5.2c0,3.5-2.5,4.9-5.5,3.1l-7.4-4.4c-3-1.8-5.5-6-5.5-9.5l0-5.2
		c0-3.5,2.5-4.9,5.5-3.1L243.1,186.4z"/>
	<path class="st28" d="M278.6,152.5l-17.9,26.2l-18.3-10.6l12.2-21.3c2.2-3.8,6.6-4.4,11.4-1.6L278.6,152.5z"/>
	<path class="st28" d="M339.5,186.7c4.9,2.8,9.4,8.7,11.5,15l11.3,35.6l-31.2-17.9l0.1-37.5L339.5,186.7z"/>
	<path class="st29" d="M61.6,123.4L61.6,123.4l0.2-53.3c0-0.2,0-0.5,0-0.7c0,0,0,0,0-0.1c0-0.2,0-0.4,0.1-0.6l0-0.1
		c0-0.2,0.1-0.3,0.1-0.5c0,0,0-0.1,0-0.1c0.1-0.2,0.1-0.3,0.2-0.4c0,0,0,0,0,0c0.1-0.2,0.2-0.3,0.2-0.4c0.1-0.2,0.3-0.4,0.4-0.5
		c0,0,0.1-0.1,0.1-0.1c0.2-0.1,0.3-0.3,0.5-0.4l-19,11.1c-0.2,0.1-0.4,0.2-0.5,0.4c0,0-0.1,0.1-0.1,0.1c-0.2,0.2-0.3,0.3-0.4,0.5
		c0,0,0,0,0,0c-0.1,0.1-0.2,0.3-0.2,0.4c0,0,0,0,0,0c0,0,0,0,0,0.1c0,0.1-0.1,0.2-0.1,0.3c0,0,0,0.1-0.1,0.2c0,0,0,0.1,0,0.1
		c0,0,0,0.1,0,0.1c0,0.1-0.1,0.2-0.1,0.3c0,0,0,0.1,0,0.1c0,0,0,0,0,0.1c0,0,0,0.1,0,0.1c0,0.1,0,0.2,0,0.3c0,0.1,0,0.1,0,0.2
		c0,0,0,0,0,0.1c0,0,0,0,0,0.1c0,0.1,0,0.2,0,0.3c0,0.1,0,0.2,0,0.3v0l-0.2,53.3l43.2,25l19-11.1L61.6,123.4z"/>
	<path class="st30" d="M217.5,295.6c-5.1,0-10.1-1.7-14.2-5L99,205.2l0-5.2l106.8,87.5c5.6,4.6,13.5,5.4,20,2.2
		c6.2-3.2,10.1-9.5,10.1-16.5v-63.7h4v63.7c0,8.5-4.7,16.2-12.3,20C224.4,294.8,220.9,295.6,217.5,295.6"/>
	<path class="st29" d="M110.7,84.8c0-0.2,0-0.3,0-0.5c0-0.1,0-0.1,0-0.2c0,0,0-0.1,0-0.1c0-0.1,0-0.1,0-0.2c0-0.2,0-0.3-0.1-0.5
		c0-0.2,0-0.3-0.1-0.5c0,0,0,0,0,0c0,0,0,0,0,0c0-0.2-0.1-0.3-0.1-0.5c0-0.2-0.1-0.3-0.1-0.5c0-0.1,0-0.1,0-0.2c0,0,0-0.1,0-0.1
		c0-0.1,0-0.1-0.1-0.2c0-0.2-0.1-0.3-0.1-0.5c0-0.1-0.1-0.3-0.1-0.4c0,0,0,0,0-0.1c0,0,0,0,0-0.1c-0.1-0.2-0.1-0.3-0.2-0.5
		c-0.1-0.2-0.1-0.3-0.2-0.5c0,0,0-0.1,0-0.1c0,0,0-0.1,0-0.1c0-0.1-0.1-0.2-0.1-0.3c-0.1-0.2-0.1-0.3-0.2-0.5c0-0.1-0.1-0.2-0.1-0.3
		c0,0,0,0,0-0.1c0,0,0,0,0-0.1c-0.1-0.2-0.1-0.3-0.2-0.5c-0.1-0.2-0.2-0.3-0.3-0.5c0,0,0-0.1,0-0.1l-0.1-0.1
		c-0.1-0.1-0.1-0.3-0.2-0.4c-0.1-0.2-0.2-0.3-0.3-0.5c0-0.1-0.1-0.2-0.1-0.3c0,0,0-0.1-0.1-0.1c-0.1-0.1-0.2-0.3-0.3-0.4
		c-0.1-0.2-0.3-0.4-0.4-0.6c0,0,0-0.1-0.1-0.1c-0.2-0.3-0.4-0.6-0.6-0.9c0,0,0,0,0,0c0,0,0,0,0,0c-0.1-0.2-0.3-0.4-0.4-0.6
		c-0.1-0.1-0.2-0.3-0.4-0.4c0,0,0,0,0,0l0,0c-0.1-0.1-0.3-0.3-0.4-0.4c-0.1-0.1-0.3-0.3-0.4-0.4c0,0,0,0-0.1-0.1c0,0,0,0-0.1-0.1
		c-0.1-0.1-0.2-0.2-0.3-0.3c-0.1-0.1-0.3-0.3-0.4-0.4c0,0-0.1-0.1-0.1-0.1c0,0-0.1-0.1-0.1-0.1c-0.1-0.1-0.1-0.1-0.2-0.2
		c-0.1-0.1-0.3-0.3-0.4-0.4c-0.1-0.1-0.1-0.1-0.2-0.2c0,0-0.1-0.1-0.1-0.1c0,0-0.1-0.1-0.1-0.1c-0.1-0.1-0.3-0.2-0.4-0.3
		c-0.1-0.1-0.2-0.2-0.3-0.2c0,0,0,0-0.1,0c0,0,0,0-0.1,0c-0.1-0.1-0.3-0.2-0.4-0.3c-0.1-0.1-0.3-0.2-0.4-0.3c0,0-0.1,0-0.1-0.1
		L66,48.1c-0.1-0.1-0.2-0.1-0.3-0.2c-0.1-0.1-0.3-0.1-0.4-0.2c-0.1,0-0.2-0.1-0.3-0.1l-0.1,0c0,0-0.1,0-0.1,0
		c-0.1-0.1-0.3-0.1-0.4-0.2c-0.1-0.1-0.3-0.1-0.4-0.1c0,0,0,0-0.1,0c0,0,0,0-0.1,0c-0.1,0-0.2-0.1-0.3-0.1c-0.1,0-0.3-0.1-0.4-0.1
		c-0.1,0-0.1,0-0.2,0c0,0-0.1,0-0.1,0c0,0-0.1,0-0.1,0c-0.1,0-0.3-0.1-0.4-0.1c-0.1,0-0.2,0-0.3,0c0,0-0.1,0-0.1,0c0,0-0.1,0-0.1,0
		c-0.2,0-0.3,0-0.5,0c-0.1,0-0.1,0-0.2,0c-0.1,0-0.1,0-0.2,0c-0.1,0-0.1,0-0.2,0c-0.2,0-0.4,0-0.6,0.1c0,0,0,0,0,0c0,0-0.1,0-0.1,0
		c-0.2,0-0.4,0.1-0.5,0.2c0,0,0,0,0,0c-0.3,0.1-0.5,0.2-0.8,0.3L40,58.5c0.2-0.1,0.5-0.3,0.8-0.3c0.2-0.1,0.4-0.1,0.6-0.2
		c0,0,0.1,0,0.1,0c0.2,0,0.5-0.1,0.7-0.1c0.1,0,0.1,0,0.2,0c0.2,0,0.5,0,0.7,0c0,0,0.1,0,0.1,0c0.3,0,0.5,0.1,0.8,0.1
		c0,0,0.1,0,0.1,0c0.3,0.1,0.6,0.1,0.9,0.2c0,0,0,0,0.1,0c0.3,0.1,0.6,0.2,0.9,0.4c0,0,0,0,0.1,0c0.3,0.1,0.6,0.3,1,0.5l34.9,20.2
		c0.3,0.2,0.7,0.4,1,0.6c0,0,0,0,0.1,0c0.3,0.2,0.6,0.4,0.9,0.7c0,0,0.1,0.1,0.1,0.1c0.3,0.2,0.6,0.5,0.8,0.7c0,0,0.1,0.1,0.1,0.1
		c0.3,0.3,0.5,0.5,0.8,0.8c0,0,0,0,0.1,0.1c0.3,0.3,0.6,0.6,0.8,0.9c0,0,0,0,0,0c0.3,0.3,0.5,0.7,0.8,1c0,0,0,0,0,0
		c0.2,0.3,0.5,0.6,0.7,1c0.1,0.2,0.3,0.4,0.4,0.6c0.1,0.2,0.2,0.4,0.3,0.5c0.1,0.1,0.1,0.2,0.1,0.3c0.2,0.3,0.3,0.6,0.5,0.9
		c0,0,0,0.1,0.1,0.1c0.2,0.4,0.4,0.8,0.5,1.1c0,0,0,0,0,0.1c0.2,0.4,0.3,0.8,0.5,1.1c0,0,0,0,0,0.1c0.1,0.4,0.3,0.8,0.4,1.2l0,0.1
		c0.1,0.4,0.2,0.8,0.3,1.1c0,0,0,0.1,0,0.1c0.1,0.4,0.2,0.8,0.2,1.2c0,0,0,0,0,0c0.1,0.4,0.1,0.8,0.1,1.2c0,0,0,0.1,0,0.1
		c0,0.4,0,0.8,0,1.1l-0.4,133.6l19-11.1l0.4-133.6C110.7,85.1,110.7,85,110.7,84.8"/>
	<path class="st31" d="M81.9,79.3c5.4,3.1,9.8,10.7,9.8,17l-0.4,133.6l-54.6-31.5l0.4-133.6c0-6.2,4.4-8.8,9.9-5.6L81.9,79.3z
		 M85.8,159.4l0.2-53.3c0-3.9-2.7-8.6-6.1-10.5l-31-17.9c-3.4-1.9-6.1-0.4-6.1,3.5l-0.2,53.3L85.8,159.4z"/>
	<path class="st32" d="M85.7,200.1c1.2,0.7,2.1,2.3,2.1,3.7s-1,1.9-2.1,1.2l-43.2-25c-1.2-0.7-2.1-2.3-2.1-3.7c0-1.4,1-1.9,2.1-1.2
		L85.7,200.1z"/>
	<path class="st32" d="M85.7,211.5c1.2,0.7,2.1,2.3,2.1,3.7s-1,1.9-2.1,1.2l-43.2-25c-1.2-0.7-2.1-2.3-2.1-3.7c0-1.4,1-1.9,2.1-1.2
		L85.7,211.5z"/>
	<path class="st30" d="M77.8,130.8c-1-0.5-2.2-0.5-3.2-0.1c-0.3,0.1-0.6,0.3-0.9,0.3c0,0,0,0,0,0l0,0c-0.1,0-0.3,0-0.4,0.1
		c-0.4,0-0.8-0.1-1.1-0.2c-0.3-0.2-1.5-0.8-1.5-2.3l0-38.3l-4-2.3v40.6c0,2.6,1.5,4.9,3.9,5.9c0.9,0.4,1.7,0.6,2.6,0.6
		c1.6,0,3.8-0.9,5-2l0,0l1,0.5C79.4,132.5,78.8,131.3,77.8,130.8"/>
	<path class="st29" d="M242.9,195.1C242.9,195,242.9,195,242.9,195.1c0-0.1,0-0.1,0-0.1s0,0,0-0.1c0,0,0,0,0-0.1c0,0,0,0,0-0.1
		c0,0,0,0,0-0.1c0,0,0,0,0-0.1c0,0,0,0,0-0.1c0,0,0,0,0-0.1c0,0,0,0,0,0c0,0,0,0,0,0c0,0,0,0,0-0.1c0,0,0,0,0-0.1c0,0,0,0,0-0.1
		c0,0,0,0,0-0.1c0,0,0,0,0-0.1c0,0,0,0,0-0.1c0,0,0,0,0-0.1c0,0,0-0.1,0-0.1c0,0,0-0.1,0-0.1c0,0,0,0,0,0c0,0,0,0,0,0
		c0-0.1-0.1-0.1-0.1-0.2c0,0-0.1-0.1-0.1-0.1c0,0,0-0.1-0.1-0.1c0,0,0,0-0.1-0.1c0,0,0,0-0.1-0.1c0,0,0,0-0.1-0.1c0,0,0,0,0,0
		c0,0,0,0,0,0c0,0,0,0,0,0c0,0,0,0-0.1-0.1c0,0,0,0-0.1-0.1c0,0,0,0-0.1-0.1c0,0,0,0-0.1,0c0,0,0,0-0.1,0c0,0,0,0-0.1,0
		c0,0,0,0-0.1,0c0,0,0,0-0.1,0c0,0,0,0,0,0l-5.2-3c0,0,0,0,0,0c0,0,0,0-0.1,0c0,0,0,0-0.1,0c0,0,0,0-0.1,0c0,0,0,0-0.1,0
		c0,0,0,0,0,0c0,0,0,0,0,0c0,0,0,0,0,0c0,0,0,0-0.1,0c0,0,0,0-0.1,0c0,0,0,0-0.1,0c0,0,0,0,0,0c0,0,0,0,0,0c0,0,0,0,0,0
		c0,0,0,0-0.1,0c0,0,0,0-0.1,0c0,0-0.1,0-0.1,0c0,0,0,0,0,0c0,0,0,0,0,0c0,0-0.1,0-0.1,0c0,0-0.1,0-0.1,0.1l-1.7,1
		c0.1,0,0.1-0.1,0.2-0.1c0,0,0,0,0,0c0.1,0,0.1,0,0.2,0c0,0,0,0,0,0c0.1,0,0.2,0,0.2,0.1c0,0,0,0,0,0c0.1,0,0.2,0.1,0.3,0.1l5.2,3
		c0.2,0.1,0.4,0.3,0.5,0.4c0,0,0,0,0,0c0.2,0.2,0.3,0.4,0.4,0.6c0,0,0,0,0,0c0.1,0.2,0.2,0.4,0.3,0.7v0c0.1,0.2,0.1,0.4,0.1,0.7
		l0,5.2c0,0.1,0,0.2,0,0.3l-2.6,10.8c0,0.1-0.1,0.2-0.1,0.3c-0.1,0.1-0.1,0.2-0.2,0.2l1.7-1c0.1-0.1,0.2-0.1,0.2-0.2c0,0,0,0,0,0
		c0,0,0-0.1,0.1-0.1c0,0,0-0.1,0-0.1c0,0,0,0,0-0.1c0,0,0,0,0-0.1l2.6-10.8c0,0,0,0,0,0c0,0,0-0.1,0-0.1c0,0,0-0.1,0-0.1
		c0,0,0,0,0-0.1c0,0,0,0,0-0.1v0L242.9,195.1C242.9,195.1,242.9,195.1,242.9,195.1"/>
	<path class="st31" d="M239.8,193.8c0.7,0.4,1.3,1.5,1.3,2.3l0,5.2c0,0.1,0,0.2,0,0.3l-2.6,10.8c-0.1,0.6-0.7,0.8-1.3,0.4
		c-0.6-0.4-1.2-1.2-1.3-1.9l-2.6-13.8c0-0.1,0-0.3,0-0.4l0-5.2c0-0.9,0.6-1.2,1.3-0.8L239.8,193.8z"/>
	<path class="st12" d="M401.3,274.6c-0.5,0-1.1-0.3-1.4-0.8c-0.4-0.7-0.2-1.7,0.6-2.1l91.7-53.3c0.7-0.4,1.7-0.2,2.1,0.6
		c0.4,0.7,0.2,1.7-0.6,2.1l-91.7,53.3C401.8,274.5,401.6,274.6,401.3,274.6"/>
	<path class="st12" d="M401.3,321.7c-0.5,0-1.1-0.3-1.4-0.8c-0.4-0.7-0.2-1.7,0.6-2.1l91.7-53.3c0.7-0.4,1.7-0.2,2.1,0.6
		c0.4,0.7,0.2,1.7-0.6,2.1l-91.7,53.3C401.8,321.6,401.6,321.7,401.3,321.7"/>
	<path class="st12" d="M417.3,275c4.3-2.5,7.8-0.5,7.8,4.4l0,7.2c0,4.9-3.5,11-7.8,13.4l-6.3,3.6c-4.3,2.5-7.8,0.5-7.8-4.5l0-7.2
		c0-4.9,3.5-10.9,7.8-13.4L417.3,275z"/>
	<path class="st12" d="M485.1,235.8c4.3-2.5,7.8-0.5,7.8,4.4l0,7.2c0,4.9-3.5,11-7.8,13.4l-6.3,3.6c-4.3,2.5-7.8,0.5-7.8-4.4l0-7.2
		c0-4.9,3.5-10.9,7.8-13.4L485.1,235.8z"/>
	<polygon class="st28" points="324.9,179 324.8,215.6 265.9,181.6 284.5,155.6 	"/>
	<path class="st21" d="M321,282.6c-0.9,0-1.9-0.3-3-0.9L271.9,255c-4.4-2.5-7.9-9.3-7.9-15.1v-56.7h0.9v56.7
		c0,5.5,3.3,11.9,7.5,14.3l46.1,26.6c1.6,0.9,2.9,1.1,4,0.4c1.9-1.1,3-4.7,3-10V219h0.9v52.3c0,5.7-1.2,9.4-3.4,10.7
		C322.4,282.4,321.7,282.6,321,282.6z"/>
	<path class="st21" d="M280.9,211.4l-9.3-5.4c-1.1-0.7-2.1-2.4-2.1-3.9l0,0c0-1.5,0.9-2.2,2.1-1.6l9.3,5.4c1.1,0.7,2.1,2.4,2.1,3.9
		l0,0C283,211.4,282,212.1,280.9,211.4z"/>
</g>
</svg>
